<svg width="26" height="26" viewBox="0 0 26 26" fill="none" xmlns="http://www.w3.org/2000/svg">
<path d="M2.5835 8.63509V17.3643C2.5835 18.9163 2.9585 20.208 3.67725 21.1976C3.97933 21.6351 4.36475 22.0205 4.80225 22.3226C5.65641 22.9476 6.73975 23.3122 8.021 23.3955V2.61426C4.60433 2.83301 2.5835 5.05176 2.5835 8.63509Z" fill="#737373"/>
<path d="M22.3231 4.80176C22.021 4.36426 21.6356 3.97884 21.1981 3.67676C20.2085 2.95801 18.9168 2.58301 17.3647 2.58301H9.5835V23.4163H17.3647C21.1564 23.4163 23.4168 21.1559 23.4168 17.3643V8.63509C23.4168 7.08301 23.0418 5.79134 22.3231 4.80176ZM16.646 15.1143C16.9481 15.4163 16.9481 15.9163 16.646 16.2184C16.4897 16.3747 16.2918 16.4476 16.0939 16.4476C15.896 16.4476 15.6981 16.3747 15.5418 16.2184L12.8752 13.5518C12.5731 13.2497 12.5731 12.7497 12.8752 12.4476L15.5418 9.78092C15.8439 9.47884 16.3439 9.47884 16.646 9.78092C16.9481 10.083 16.9481 10.583 16.646 10.8851L14.5418 12.9997L16.646 15.1143Z" fill="#737373"/>
</svg>
